<?xml version="1.0" encoding="utf-8"?>
<!-- Generator: Adobe Illustrator 27.4.1, SVG Export Plug-In . SVG Version: 6.00 Build 0)  -->
<svg version="1.1" id="Layer_1" xmlns="http://www.w3.org/2000/svg" xmlns:xlink="http://www.w3.org/1999/xlink" x="0px" y="0px"
	 viewBox="0 0 159.26 40" style="enable-background:new 0 0 159.26 40;" xml:space="preserve">
<style type="text/css">
	.st0{fill:#FFFFFF;}
</style>
<g>
	<path class="st0" d="M73.03,30.19v7.04H48.7v-7.04h8.79v-3.82H45.34v-6.99h5.01v-8.51h-5.01v-3.5c0-1.01,0.34-1.84,1.01-2.48
		c0.64-0.67,1.46-1.01,2.44-1.01H76.3v6.99h-5.01v8.51h5.01v6.99H64.52v3.82H73.03z M64.29,10.87h-6.95v8.51h6.95V10.87z"/>
	<path class="st0" d="M100.03,15.52h3.5V8.57h6.35v22.49h-6.35v-8.37h-3.96C99.39,23.89,99,25,98.4,26.03
		c-0.6,1.03-1.34,1.92-2.23,2.67s-1.89,1.34-3.01,1.77c-1.12,0.43-2.29,0.64-3.52,0.64c-1.38,0-2.68-0.26-3.91-0.78
		s-2.3-1.24-3.22-2.16c-0.92-0.92-1.64-1.99-2.16-3.22c-0.52-1.23-0.78-2.53-0.78-3.91c0-1.93,0.51-3.71,1.52-5.34h-1.84V8.62h7.22
		V3.88h7.08v4.74h6.48V15.52z M89.64,24.03c0.83,0,1.53-0.29,2.12-0.87s0.88-1.29,0.88-2.12s-0.29-1.53-0.88-2.12
		c-0.58-0.58-1.29-0.87-2.12-0.87s-1.54,0.29-2.12,0.87c-0.58,0.58-0.87,1.29-0.87,2.12s0.29,1.53,0.87,2.12
		S88.81,24.03,89.64,24.03z M112.59,8.57h6.35v22.49h-6.35V8.57z"/>
	<path class="st0" d="M132.51,31.2c-1.56,0-3.03-0.3-4.39-0.9s-2.55-1.4-3.56-2.41c-1.01-1.01-1.82-2.21-2.42-3.59
		c-0.6-1.38-0.9-2.85-0.9-4.42s0.3-3.03,0.9-4.39c0.6-1.36,1.4-2.55,2.42-3.56c1.01-1.01,2.2-1.82,3.56-2.42
		c1.36-0.6,2.83-0.9,4.39-0.9c1.23,0,2.41,0.19,3.54,0.57c1.13,0.38,2.18,0.92,3.13,1.61c0.95,0.69,1.77,1.51,2.46,2.46
		c0.69,0.95,1.22,1.98,1.59,3.08h4.46V8.48h7.04v22.49h-7.04v-7.59h-4.42c-0.37,1.14-0.91,2.18-1.61,3.15
		c-0.71,0.97-1.53,1.79-2.46,2.48c-0.94,0.69-1.98,1.23-3.13,1.61C134.93,31.01,133.74,31.2,132.51,31.2z M132.51,16.53
		c-0.92,0-1.71,0.33-2.37,0.99c-0.66,0.66-0.99,1.45-0.99,2.37c0,0.92,0.33,1.71,0.99,2.37c0.66,0.66,1.45,0.99,2.37,0.99
		s1.71-0.33,2.37-0.99c0.66-0.66,0.99-1.45,0.99-2.37c0-0.92-0.33-1.71-0.99-2.37C134.22,16.86,133.43,16.53,132.51,16.53z"/>
</g>
<path class="st0" d="M3.37,38.23c-0.06-4.59-0.12-9.17-0.18-13.76c0-0.31,0-0.63,0.01-0.94c0.02-0.71,0.33-1.08,1.1-1.08
	c3.72,0.02,7.45-0.01,11.17,0.01c1.73,0.01,3.17,0.99,2.68,3.22c-0.25,1.16-0.41,2.34-0.58,3.51c-0.27,1.84,0.36,3.34,1.87,4.41
	c1.54,1.09,3.22,1.12,4.88,0.26c1.61-0.84,2.28-2.26,2.2-4.03c-0.06-1.37-0.16-2.75-0.29-4.12c-0.21-2.08,0.66-3.23,2.73-3.24
	c3.78-0.01,7.56,0.1,11.34,0.17c0.16,0,0.31,0,0.47-0.01c0,5.19,0,10.37,0,15.59C28.29,38.23,15.83,38.23,3.37,38.23z"/>
<path class="st0" d="M28.3,1.58c-0.52,1.59-1.07,3.17-1.56,4.76c-1.81,5.94-2.73,12-2.32,18.22c0.1,1.62,0.28,3.24,0.44,4.86
	c0.14,1.39-0.35,2.46-1.54,3.17c-1.01,0.6-2.03,0.54-3-0.13c-1.12-0.78-1.46-1.84-1.23-3.19c1.2-7.26,2.97-14.37,5.72-21.2
	c0.91-2.27,2.15-4.4,3.23-6.6C28.13,1.5,28.21,1.54,28.3,1.58z"/>
</svg>
