<svg class="svg-white" width="0.8rem" height="0.8rem" enable-background="new 0 0 512.001 512.001" viewBox="0 0 512.001 512.001" xmlns="http://www.w3.org/2000/svg">

					<path d="m284.286 256.002 221.857-221.858c7.811-7.811 7.811-20.475 0-28.285s-20.475-7.811-28.285 0l-221.858 221.858-221.857-221.858c-7.811-7.811-20.475-7.811-28.285 0s-7.811 20.475 0 28.285l221.857 221.857-221.857 221.858c-7.811 7.811-7.811 20.475 0 28.285 3.905 3.905 9.024 5.857 14.143 5.857s10.237-1.952 14.143-5.857l221.856-221.857 221.857 221.857c3.905 3.905 9.024 5.857 14.143 5.857s10.237-1.952 14.143-5.857c7.811-7.811 7.811-20.475 0-28.285z"></path></svg>